<svg xmlns="http://www.w3.org/2000/svg" viewBox="0 0 350.01 192.59"><defs><style>.cls-1{fill:#a27ff7;}.cls-2{fill:#7d40f4;}.cls-3{fill:#4e26b2;}</style></defs><title>wsiwn-logo</title><g id="Camada_2" data-name="Camada 2"><g id="Camada_1-2" data-name="Camada 1"><polygon class="cls-1" points="222 24 222 14 212 14 202 14 192 14 192 24 202 24 202 90 192 90 192 100 202 100 212 100 222 100 222 90 212 90 212 24 222 24"/><path class="cls-2" d="M54.62,56.57H67.44L48.11,103.5,33.69,76.77,19.33,103.5,0,56.57H12.76l8.81,25.27L33.69,54.35,45.94,81.84Z"/><path class="cls-2" d="M72.18,92.68a3.74,3.74,0,0,0,1.53,1.21,5.36,5.36,0,0,0,2.11.41,6.74,6.74,0,0,0,3.06-.7,5.73,5.73,0,0,0,2.29-2.09,6.2,6.2,0,0,0,.89-3.41l1,3.79a7.37,7.37,0,0,1-1.53,4.72,9.54,9.54,0,0,1-4,2.91,13.85,13.85,0,0,1-5.22,1,13,13,0,0,1-5.2-1,8.78,8.78,0,0,1-3.82-3.14,8.69,8.69,0,0,1-1.43-5.06,8.05,8.05,0,0,1,3-6.61c2-1.63,4.82-2.44,8.48-2.44a21.41,21.41,0,0,1,4.81.5A17.71,17.71,0,0,1,81.87,84a8.24,8.24,0,0,1,2.3,1.58V89.8a11.25,11.25,0,0,0-3.54-1.74,14.73,14.73,0,0,0-4.24-.6,8.12,8.12,0,0,0-2.74.38A3.15,3.15,0,0,0,72.12,89a3.06,3.06,0,0,0-.51,1.8A3.2,3.2,0,0,0,72.18,92.68ZM64.09,73.29a41.13,41.13,0,0,1,6-2.28,25.91,25.91,0,0,1,7.65-1.08,20.31,20.31,0,0,1,7,1.11,11.25,11.25,0,0,1,4.84,3.19,7.65,7.65,0,0,1,1.78,5.13V99.87H82.06V81.51a4.44,4.44,0,0,0-.35-1.86,3.58,3.58,0,0,0-1-1.37,4.51,4.51,0,0,0-1.75-.82,10.2,10.2,0,0,0-2.39-.25,17.11,17.11,0,0,0-3.86.44,20.8,20.8,0,0,0-3.28,1,18.38,18.38,0,0,0-2,1Z"/><path class="cls-2" d="M114.69,70.75v7.91H95.06V70.75Zm-5.23-10.12V99.87h-9.24V60.63Z"/><path class="cls-2" d="M127.88,89.33A7.14,7.14,0,0,0,130.72,92a8.34,8.34,0,0,0,3.92.94,10.7,10.7,0,0,0,3.4-.53,11.68,11.68,0,0,0,3-1.49,8.13,8.13,0,0,0,2.26-2.34v9.3a11.9,11.9,0,0,1-3.82,1.93,18.58,18.58,0,0,1-5.61.73,19.37,19.37,0,0,1-8.7-1.9,14.78,14.78,0,0,1-6-5.32,15.61,15.61,0,0,1,0-16,14.91,14.91,0,0,1,6-5.28,19.37,19.37,0,0,1,8.7-1.9,18.58,18.58,0,0,1,5.61.73,14,14,0,0,1,3.82,1.8V82A7.84,7.84,0,0,0,141,79.68a11.82,11.82,0,0,0-3.09-1.46,11,11,0,0,0-3.25-.51,7.85,7.85,0,0,0-3.92,1,7.31,7.31,0,0,0-3.86,6.58A7.6,7.6,0,0,0,127.88,89.33Z"/><path class="cls-2" d="M159.93,99.87h-9.68V50.5h9.68Zm8.42-21.71A3.74,3.74,0,0,0,165,76.77a5.23,5.23,0,0,0-2.67.66,4.66,4.66,0,0,0-1.79,1.84,6,6,0,0,0-.64,2.88h-1.65a16.48,16.48,0,0,1,1.15-6.3,9.46,9.46,0,0,1,9.43-6.17,11.7,11.7,0,0,1,5.83,1.26,7.5,7.5,0,0,1,3.22,3.74,16.1,16.1,0,0,1,1,6.07V99.87H169.3V82.15A7.09,7.09,0,0,0,168.35,78.16Z"/><path class="cls-3" d="M67.55,115.74v76.85L16.94,147.74v41.2H0V112.08l50.51,44.86v-41.2Z"/><path class="cls-3" d="M91.44,186.9A22.58,22.58,0,0,1,82,178.17a25.61,25.61,0,0,1-3.35-13.28,26.48,26.48,0,0,1,3.25-13.39,21.52,21.52,0,0,1,9.36-8.68,32.24,32.24,0,0,1,14.48-3,31.5,31.5,0,0,1,14.12,2.87,20.08,20.08,0,0,1,8.78,8.32,26.68,26.68,0,0,1,3,13.17v2.25a6.77,6.77,0,0,1-.21,1.83H87.52v-8.78h29.7l-3.76,4.81a7.43,7.43,0,0,0,.89-1.83,6.09,6.09,0,0,0,.36-1.83,12,12,0,0,0-1.15-5.44,8.54,8.54,0,0,0-3.24-3.56,9.44,9.44,0,0,0-4.92-1.25,10.67,10.67,0,0,0-6,1.57,9.39,9.39,0,0,0-3.6,4.76,24.15,24.15,0,0,0-1.31,8,20.38,20.38,0,0,0,1.25,7.52A9.8,9.8,0,0,0,99.55,177a11.14,11.14,0,0,0,6.17,1.62,15.26,15.26,0,0,0,7.16-1.56,11.72,11.72,0,0,0,4.76-4.71l14.12,3.45a25.37,25.37,0,0,1-10.2,10.67Q115.13,190,105.93,190A31.92,31.92,0,0,1,91.44,186.9Z"/><path class="cls-3" d="M188.22,140.83l-18.4,23.43,19.45,24.68H171.7l-10-14-9.83,14H133.64l19.76-24.68-18.72-23.43h18.2l8.78,12.66,9-12.66Z"/><path class="cls-3" d="M222,140.83v13.08H189.79V140.83Zm-8.57-16.73v64.84H198.26V124.1Z"/><path class="cls-3" d="M25.66,16.09h6L22.6,38.3,15.83,25.66,9.08,38.3,0,16.09H6l4.13,12,5.7-13,5.75,13Z"/><path class="cls-3" d="M38.13,37.07H33.57V13.7h4.56Zm3.95-10.28a1.75,1.75,0,0,0-1.56-.66,2.46,2.46,0,0,0-1.26.32,2.24,2.24,0,0,0-.83.87,2.82,2.82,0,0,0-.3,1.36h-.78a7.87,7.87,0,0,1,.54-3,4.77,4.77,0,0,1,1.63-2.13,4.64,4.64,0,0,1,2.8-.79,5.47,5.47,0,0,1,2.75.6,3.56,3.56,0,0,1,1.51,1.77A7.52,7.52,0,0,1,47.06,28v9.05H42.53V28.68A3.34,3.34,0,0,0,42.08,26.79Z"/><path class="cls-3" d="M54.37,33.67a1.7,1.7,0,0,0,.72.57,2.47,2.47,0,0,0,1,.2,3.17,3.17,0,0,0,1.44-.33,2.7,2.7,0,0,0,1.08-1A3,3,0,0,0,59,31.5l.48,1.8a3.49,3.49,0,0,1-.72,2.23,4.46,4.46,0,0,1-1.86,1.38,6.45,6.45,0,0,1-2.46.46A6,6,0,0,1,52,36.88,4,4,0,0,1,49.55,33,3.85,3.85,0,0,1,51,29.87a6.14,6.14,0,0,1,4-1.16A9.73,9.73,0,0,1,57.2,29a8.1,8.1,0,0,1,1.73.6A3.75,3.75,0,0,1,60,30.3v2a5.11,5.11,0,0,0-1.67-.82,6.84,6.84,0,0,0-2-.29,3.77,3.77,0,0,0-1.29.18,1.35,1.35,0,0,0-1,1.38A1.51,1.51,0,0,0,54.37,33.67Zm-3.81-9.18a20,20,0,0,1,2.82-1.08A12.14,12.14,0,0,1,57,22.9a9.51,9.51,0,0,1,3.27.52,5.26,5.26,0,0,1,2.27,1.52,3.58,3.58,0,0,1,.84,2.42v9.71H59V28.38a2.16,2.16,0,0,0-.17-.88,1.72,1.72,0,0,0-.49-.65,2.06,2.06,0,0,0-.83-.39,4.75,4.75,0,0,0-1.12-.12,7.79,7.79,0,0,0-1.81.21,9.43,9.43,0,0,0-1.55.5,9,9,0,0,0-1,.46Z"/><path class="cls-3" d="M74.36,23.29V27H65.13V23.29Zm-2.45-4.8V37.07H67.56V18.49Z"/><path class="cls-3" d="M89.45,31.68A5.87,5.87,0,0,0,91.19,33a4.61,4.61,0,0,0,2,.45A2.91,2.91,0,0,0,95,32.86a1.82,1.82,0,0,0,.71-1.51,2,2,0,0,0-.41-1.3A4.22,4.22,0,0,0,94,29.1q-.93-.45-2.46-1a16.14,16.14,0,0,1-1.72-.75,8.44,8.44,0,0,1-1.85-1.24,6.35,6.35,0,0,1-1.44-1.86,5.67,5.67,0,0,1-.57-2.65,5.34,5.34,0,0,1,1-3.21,6.1,6.1,0,0,1,2.64-2.05,9.35,9.35,0,0,1,3.7-.71,8.85,8.85,0,0,1,3.64.69A8.14,8.14,0,0,1,99.45,18,8.64,8.64,0,0,1,101,20.17l-3.87,2.16a6.15,6.15,0,0,0-1-1.31,4.58,4.58,0,0,0-1.29-.87,3.81,3.81,0,0,0-1.51-.31,2.61,2.61,0,0,0-1.65.46,1.44,1.44,0,0,0-.57,1.16,1.7,1.7,0,0,0,.55,1.26,5.31,5.31,0,0,0,1.59,1c.69.3,1.53.62,2.5,1a14.08,14.08,0,0,1,2.07,1A7.41,7.41,0,0,1,99.5,27a5.83,5.83,0,0,1,1.15,1.8,6.1,6.1,0,0,1,.42,2.34A6,6,0,0,1,98.69,36,7.92,7.92,0,0,1,96.2,37.3a9.53,9.53,0,0,1-2.86.43,9.75,9.75,0,0,1-8.85-5.48L88,29.7A10,10,0,0,0,89.45,31.68Z"/><path class="cls-3" d="M108.56,37.07H104V13.7h4.55Zm4-10.28a1.75,1.75,0,0,0-1.56-.66,2.46,2.46,0,0,0-1.26.32,2.2,2.2,0,0,0-.84.87,2.82,2.82,0,0,0-.3,1.36h-.78a7.87,7.87,0,0,1,.54-3A4.79,4.79,0,0,1,110,23.57a4.64,4.64,0,0,1,2.8-.79,5.43,5.43,0,0,1,2.74.6A3.53,3.53,0,0,1,117,25.15,7.52,7.52,0,0,1,117.5,28v9.05H113V28.68A3.34,3.34,0,0,0,112.52,26.79Z"/><path class="cls-3" d="M121.24,26.37a7,7,0,0,1,2.82-2.51,8.93,8.93,0,0,1,4.05-.9,8.82,8.82,0,0,1,4,.9A7.08,7.08,0,0,1,135,26.37,7.51,7.51,0,0,1,135,34a6.93,6.93,0,0,1-2.82,2.51,8.82,8.82,0,0,1-4,.9,8.93,8.93,0,0,1-4.05-.9A6.81,6.81,0,0,1,121.24,34a6.94,6.94,0,0,1-1-3.78A7,7,0,0,1,121.24,26.37ZM125.32,32a3.26,3.26,0,0,0,1.17,1.19,3.3,3.3,0,0,0,3.22,0A3.11,3.11,0,0,0,130.88,32a3.66,3.66,0,0,0,.43-1.84,3.76,3.76,0,0,0-.43-1.86,3.07,3.07,0,0,0-1.17-1.2,3.3,3.3,0,0,0-3.22,0,3.21,3.21,0,0,0-1.17,1.2,3.66,3.66,0,0,0-.45,1.86A3.56,3.56,0,0,0,125.32,32Z"/><path class="cls-3" d="M143.87,33.55a1.74,1.74,0,0,0,1.56.68,2.51,2.51,0,0,0,1.27-.3,2.11,2.11,0,0,0,.83-.87,2.93,2.93,0,0,0,.3-1.38V23.29h4.52V37.07h-4.52V35a4.87,4.87,0,0,1-1.65,1.75,5.63,5.63,0,0,1-6.31-.75,5.75,5.75,0,0,1-1.18-3.85V23.29h4.73v8.39A3.34,3.34,0,0,0,143.87,33.55Z"/><path class="cls-3" d="M160.48,13.7V37.07h-4.56V13.7Z"/><path class="cls-3" d="M164.15,26.25a6.58,6.58,0,0,1,2.44-2.42,6.41,6.41,0,0,1,3.18-.84,5.49,5.49,0,0,1,3.07.87A6,6,0,0,1,175,26.33a8.72,8.72,0,0,1,.78,3.85A8.77,8.77,0,0,1,175,34a6,6,0,0,1-2.11,2.49,5.56,5.56,0,0,1-3.07.86,6.41,6.41,0,0,1-5.62-3.28,7.57,7.57,0,0,1-1-3.91A7.57,7.57,0,0,1,164.15,26.25Zm4.27,5.8a3.23,3.23,0,0,0,2.85,1.67,3,3,0,0,0,1.51-.42A3.29,3.29,0,0,0,174,32.08a4,4,0,0,0,0-3.8,3.29,3.29,0,0,0-1.21-1.22,3,3,0,0,0-1.51-.42,3.23,3.23,0,0,0-2.85,1.67,4.11,4.11,0,0,0,0,3.74ZM179,13.7V37.07h-4.53V13.7Z"/><path class="cls-2" d="M273.52,131.52q0-17.9,4.34-28.5t15.9-20.9q11.57-10.29,15.39-16.75A26.32,26.32,0,0,0,313,51.75q0-21.61-19.92-21.62-9.45,0-15.13,5.83T272,52H235q.25-24.42,15.77-38.22T293.06,0q27.07,0,42,13.1T350,50.1a45.1,45.1,0,0,1-4.85,20.52q-4.86,9.64-17,21.4l-10.34,9.85a35.07,35.07,0,0,0-11.11,21.85l-.51,7.8Zm-3.7,39.14a18.6,18.6,0,0,1,5.81-14.07q5.81-5.53,14.88-5.54t14.87,5.54a19.86,19.86,0,0,1,.13,27.94q-5.68,5.47-15,5.47t-15-5.47A18.44,18.44,0,0,1,269.82,170.66Z"/></g></g></svg>